<?xml version="1.0" ?><svg enable-background="new 0 0 504 504" id="Layer_1" version="1.1" viewBox="0 0 504 504" xml:space="preserve" xmlns="http://www.w3.org/2000/svg" xmlns:xlink="http://www.w3.org/1999/xlink"><path d="M452.2,251.6c-9.2,58.5-27.1,75.6-58.8,114.9c-31.7,33.3-77.3,88.9-141.9,85.8  c-58.5-9.2-75.6-27.1-114.9-58.8c-33.3-31.7-88.9-77.3-85.8-141.9c9.2-58.5,27.1-75.6,58.8-114.9c31.7-33.3,77.3-88.9,141.9-85.8  c58.5,9.2,75.6,27.1,114.9,58.8C399.7,141.4,455.3,187,452.2,251.6z" fill="#3765AF"/><path d="M287,273.6c-12.9-1.8-22.7-6.7-31.9-12.9c-1.2,0.6-3.1,1.2-4.3,1.8L231.2,330l0,0c25.1,16.6,57,20.2,84,5.5  l19.6-68.7c-5.5-3.1-6.7-0.6-12.3,1.8C311.6,273,299.3,275.5,287,273.6C274.2,272.4,310.9,276.7,287,273.6z M244.7,253.4  c-14.7-9.8-30-15.3-47.8-13.5c-10.4,1.2-21.5,4.3-30,9.8l-19.6,66.8l0,0c4.3,2.5,4.9,1.2,9.2,0c6.7-2.5,13.5-4.3,20.2-4.9  c16.6-1.8,30.7,2.5,44.1,11.6c1.2-0.6,2.5-1.2,3.7-1.8L244.7,253.4z M212.8,233.2c12.9,0.6,22.1,6.1,31.3,11.6  c1.2-0.6,2.5-1.2,3.7-1.8l19.6-67.4c-14.7-9.8-30-15.3-47.8-13.5c-10.4,1.2-21.5,4.3-30,9.8l-19.6,66.8c1.8,1.2,3.1,2.5,4.9,1.8  c3.1-1.2,6.1-2.5,9.2-3.7C193.8,233.8,203,232.5,212.8,233.2C225.1,233.8,195.1,231.9,212.8,233.2z M353.2,186.6  c-24.5,13.5-52.7,11-76-4.3l-4.3,1.8l-19.6,67.4l0,0c25.1,16.6,57,20.2,84,5.5l19.6-68.7L353.2,186.6z" fill="#FFFFFF"/></svg>